<svg width="283" height="206" viewBox="0 0 283 206" fill="none" xmlns="http://www.w3.org/2000/svg">
<path d="M154.623 89.0646H7.08953C5.23494 89.0625 3.45689 88.3245 2.1455 87.0126C0.834102 85.7007 0.0964452 83.9219 0.0943604 82.0666V6.99796C0.0964452 5.14263 0.834102 3.36388 2.1455 2.05196C3.45689 0.740038 5.23494 0.00208573 7.08953 0H154.623C156.478 0.00208381 158.256 0.740038 159.567 2.05196C160.879 3.36388 161.616 5.14263 161.618 6.99796V82.0666C161.616 83.922 160.878 85.7007 159.567 87.0126C158.256 88.3245 156.478 89.0625 154.623 89.0646V89.0646Z" fill="#CCCCCC"/>
<path d="M152.927 83.9752H8.78532C7.82993 83.9741 6.91396 83.594 6.23839 82.9182C5.56283 82.2423 5.18283 81.326 5.18176 80.3702V8.69447C5.18283 7.7387 5.56283 6.82237 6.23839 6.14653C6.91396 5.47069 7.82993 5.09054 8.78532 5.08948H152.927C153.883 5.09054 154.799 5.47069 155.474 6.14653C156.15 6.82237 156.53 7.7387 156.531 8.69447V80.3702C156.53 81.326 156.15 82.2423 155.474 82.9182C154.799 83.594 153.883 83.9741 152.927 83.9752Z" fill="white"/>
<path d="M15.935 102.863C15.5772 102.862 15.2231 102.791 14.8931 102.652C14.4003 102.454 13.9789 102.112 13.6839 101.67C13.3889 101.229 13.234 100.708 13.2396 100.177V86.3798L34.0229 85.8542L17.8119 102.072C17.567 102.321 17.275 102.52 16.9528 102.656C16.6306 102.792 16.2847 102.862 15.935 102.863V102.863Z" fill="#CCCCCC"/>
<path d="M135.377 41.3181H62.4583C62.0124 41.3187 61.5709 41.2315 61.1588 41.0612C60.7468 40.891 60.3723 40.6412 60.0568 40.3261C59.7414 40.0109 59.4911 39.6367 59.3203 39.2247C59.1496 38.8128 59.0617 38.3711 59.0617 37.9252C59.0617 37.4792 59.1496 37.0376 59.3203 36.6256C59.4911 36.2136 59.7414 35.8394 60.0568 35.5242C60.3723 35.2091 60.7468 34.9593 61.1588 34.7891C61.5709 34.6189 62.0124 34.5316 62.4583 34.5322H135.377C136.277 34.5322 137.139 34.8897 137.775 35.526C138.411 36.1623 138.769 37.0253 138.769 37.9252C138.769 38.825 138.411 39.688 137.775 40.3243C137.139 40.9606 136.277 41.3181 135.377 41.3181Z" fill="#CCCCCC"/>
<path d="M111.636 26.898H62.4582C61.5587 26.898 60.6961 26.5406 60.06 25.9043C59.424 25.268 59.0667 24.405 59.0667 23.5051C59.0667 22.6053 59.424 21.7422 60.06 21.1059C60.6961 20.4697 61.5587 20.1122 62.4582 20.1122H111.636C112.536 20.1122 113.398 20.4697 114.034 21.1059C114.67 21.7422 115.028 22.6053 115.028 23.5051C115.028 24.405 114.67 25.268 114.034 25.9043C113.398 26.5406 112.536 26.898 111.636 26.898V26.898Z" fill="#CCCCCC"/>
<path d="M32.273 41.318C38.1265 41.318 42.8717 36.5709 42.8717 30.7151C42.8717 24.8593 38.1265 20.1122 32.273 20.1122C26.4195 20.1122 21.6743 24.8593 21.6743 30.7151C21.6743 36.5709 26.4195 41.318 32.273 41.318Z" fill="#FF4274"/>
<path d="M112.906 68.9524C114.779 68.9524 116.297 67.4333 116.297 65.5594C116.297 63.6856 114.779 62.1665 112.906 62.1665C111.033 62.1665 109.514 63.6856 109.514 65.5594C109.514 67.4333 111.033 68.9524 112.906 68.9524Z" fill="#E6E6E6"/>
<path d="M124.776 68.9524C126.649 68.9524 128.168 67.4333 128.168 65.5594C128.168 63.6856 126.649 62.1665 124.776 62.1665C122.903 62.1665 121.385 63.6856 121.385 65.5594C121.385 67.4333 122.903 68.9524 124.776 68.9524Z" fill="#E6E6E6"/>
<path d="M136.647 68.9524C138.52 68.9524 140.038 67.4333 140.038 65.5594C140.038 63.6856 138.52 62.1665 136.647 62.1665C134.774 62.1665 133.255 63.6856 133.255 65.5594C133.255 67.4333 134.774 68.9524 136.647 68.9524Z" fill="#E6E6E6"/>
<path d="M275.529 192.065H127.995C126.141 192.062 124.363 191.324 123.051 190.013C121.74 188.701 121.002 186.922 121 185.067V109.998C121.002 108.143 121.74 106.364 123.051 105.052C124.363 103.74 126.141 103.002 127.995 103H275.529C277.383 103.002 279.161 103.74 280.473 105.052C281.784 106.364 282.522 108.143 282.524 109.998V185.067C282.522 186.922 281.784 188.701 280.473 190.013C279.161 191.325 277.383 192.062 275.529 192.065V192.065Z" fill="#CCCCCC"/>
<path d="M273.833 186.975H129.691C128.736 186.974 127.82 186.594 127.144 185.918C126.468 185.242 126.088 184.326 126.087 183.37V111.694C126.088 110.739 126.468 109.822 127.144 109.146C127.82 108.471 128.736 108.09 129.691 108.089H273.833C274.788 108.09 275.704 108.471 276.38 109.146C277.055 109.822 277.435 110.739 277.437 111.694V183.37C277.435 184.326 277.055 185.242 276.38 185.918C275.704 186.594 274.788 186.974 273.833 186.975Z" fill="white"/>
<path d="M265.485 205.072L249.274 188.854L270.058 189.38V203.177C270.063 203.708 269.908 204.229 269.613 204.67C269.318 205.112 268.897 205.454 268.404 205.653C268.074 205.791 267.72 205.862 267.362 205.863C267.012 205.862 266.667 205.792 266.344 205.656C266.022 205.52 265.73 205.321 265.485 205.072V205.072Z" fill="#CCCCCC"/>
<path d="M256.283 144.318H183.364C182.918 144.319 182.477 144.231 182.064 144.061C181.652 143.891 181.278 143.641 180.962 143.326C180.647 143.011 180.397 142.637 180.226 142.225C180.055 141.813 179.967 141.371 179.967 140.925C179.967 140.479 180.055 140.037 180.226 139.625C180.397 139.213 180.647 138.839 180.962 138.524C181.278 138.209 181.652 137.959 182.064 137.789C182.477 137.619 182.918 137.531 183.364 137.532H256.283C256.729 137.531 257.17 137.619 257.582 137.789C257.994 137.959 258.369 138.209 258.684 138.524C259 138.839 259.25 139.213 259.421 139.625C259.591 140.037 259.679 140.479 259.679 140.925C259.679 141.371 259.591 141.813 259.421 142.225C259.25 142.637 259 143.011 258.684 143.326C258.369 143.641 257.994 143.891 257.582 144.061C257.17 144.231 256.729 144.319 256.283 144.318V144.318Z" fill="#CCCCCC"/>
<path d="M232.542 129.898H183.364C182.918 129.898 182.477 129.81 182.066 129.64C181.655 129.469 181.281 129.219 180.966 128.904C180.651 128.589 180.401 128.215 180.23 127.804C180.06 127.392 179.972 126.951 179.972 126.505C179.972 126.06 180.06 125.618 180.23 125.207C180.401 124.795 180.651 124.421 180.966 124.106C181.281 123.791 181.655 123.541 182.066 123.37C182.477 123.2 182.918 123.112 183.364 123.112H232.542C233.441 123.112 234.304 123.47 234.94 124.106C235.576 124.742 235.933 125.605 235.933 126.505C235.933 127.405 235.576 128.268 234.94 128.904C234.304 129.541 233.441 129.898 232.542 129.898V129.898Z" fill="#CCCCCC"/>
<path d="M153.179 144.318C159.032 144.318 163.777 139.571 163.777 133.715C163.777 127.859 159.032 123.112 153.179 123.112C147.325 123.112 142.58 127.859 142.58 133.715C142.58 139.571 147.325 144.318 153.179 144.318Z" fill="#ABDFAB"/>
<path d="M240.811 171.952C242.684 171.952 244.203 170.433 244.203 168.559C244.203 166.686 242.684 165.167 240.811 165.167C238.938 165.167 237.42 166.686 237.42 168.559C237.42 170.433 238.938 171.952 240.811 171.952Z" fill="#E6E6E6"/>
<path d="M252.682 171.952C254.555 171.952 256.073 170.433 256.073 168.559C256.073 166.686 254.555 165.167 252.682 165.167C250.809 165.167 249.29 166.686 249.29 168.559C249.29 170.433 250.809 171.952 252.682 171.952Z" fill="#E6E6E6"/>
<path d="M264.552 171.952C266.425 171.952 267.944 170.433 267.944 168.559C267.944 166.686 266.425 165.167 264.552 165.167C262.679 165.167 261.161 166.686 261.161 168.559C261.161 170.433 262.679 171.952 264.552 171.952Z" fill="#E6E6E6"/>
</svg>
