<svg width="100" height="825" viewBox="0 0 100 825" fill="none" xmlns="http://www.w3.org/2000/svg">
<g filter="url(#filter0_d)">
<circle cx="46.5" cy="780.5" r="36.5" fill="#002C2A"/>
</g>
<g filter="url(#filter1_d)">
<circle cx="46" cy="732" r="9" fill="#002C2A"/>
</g>
<rect x="41" y="737" width="9" height="9" fill="#002C2A"/>
<g filter="url(#filter2_d)">
<path d="M0 0H92V572H0V0Z" fill="#002C2A"/>
<path d="M0 572H92V664H0V572Z" fill="#002C2A"/>
<path d="M92 664C92 689.405 71.4051 710 46 710C20.5949 710 0 689.405 0 664C0 638.595 20.5949 618 46 618C71.4051 618 92 638.595 92 664Z" fill="#002C2A"/>
</g>
<path d="M39 735L47.7272 749.25L31 748L34.5 746L36 745L37 744L37.5 743L38 742L38.5 741L39 739.443L39.5 738V736.5L39 735Z" fill="#002C2A"/>
<path d="M60.7045 747.067L44 747.5L53.4462 733.639L52.7045 738L52.5 739.5L53 741L53.5 742L54.5 743.5L55.5 744.5L56.5 745.5L57.8564 746L59.1554 746.75L60.7045 747.067Z" fill="#002C2A"/>
<defs>
<filter id="filter0_d" x="10" y="744" width="81" height="81" filterUnits="userSpaceOnUse" color-interpolation-filters="sRGB">
<feFlood flood-opacity="0" result="BackgroundImageFix"/>
<feColorMatrix in="SourceAlpha" type="matrix" values="0 0 0 0 0 0 0 0 0 0 0 0 0 0 0 0 0 0 127 0"/>
<feOffset dx="4" dy="4"/>
<feGaussianBlur stdDeviation="2"/>
<feColorMatrix type="matrix" values="0 0 0 0 0 0 0 0 0 0 0 0 0 0 0 0 0 0 0.25 0"/>
<feBlend mode="normal" in2="BackgroundImageFix" result="effect1_dropShadow"/>
<feBlend mode="normal" in="SourceGraphic" in2="effect1_dropShadow" result="shape"/>
</filter>
<filter id="filter1_d" x="37" y="723" width="26" height="26" filterUnits="userSpaceOnUse" color-interpolation-filters="sRGB">
<feFlood flood-opacity="0" result="BackgroundImageFix"/>
<feColorMatrix in="SourceAlpha" type="matrix" values="0 0 0 0 0 0 0 0 0 0 0 0 0 0 0 0 0 0 127 0"/>
<feOffset dx="4" dy="4"/>
<feGaussianBlur stdDeviation="2"/>
<feColorMatrix type="matrix" values="0 0 0 0 0 0 0 0 0 0 0 0 0 0 0 0 0 0 0.25 0"/>
<feBlend mode="normal" in2="BackgroundImageFix" result="effect1_dropShadow"/>
<feBlend mode="normal" in="SourceGraphic" in2="effect1_dropShadow" result="shape"/>
</filter>
<filter id="filter2_d" x="0" y="0" width="100" height="718" filterUnits="userSpaceOnUse" color-interpolation-filters="sRGB">
<feFlood flood-opacity="0" result="BackgroundImageFix"/>
<feColorMatrix in="SourceAlpha" type="matrix" values="0 0 0 0 0 0 0 0 0 0 0 0 0 0 0 0 0 0 127 0"/>
<feOffset dx="4" dy="4"/>
<feGaussianBlur stdDeviation="2"/>
<feColorMatrix type="matrix" values="0 0 0 0 0 0 0 0 0 0 0 0 0 0 0 0 0 0 0.25 0"/>
<feBlend mode="normal" in2="BackgroundImageFix" result="effect1_dropShadow"/>
<feBlend mode="normal" in="SourceGraphic" in2="effect1_dropShadow" result="shape"/>
</filter>
</defs>
</svg>
