<svg width="100" height="253" viewBox="0 0 100 253" fill="none" xmlns="http://www.w3.org/2000/svg">
<g filter="url(#filter0_d)">
<circle cx="46.5" cy="208.5" r="36.5" fill="#002C2A"/>
</g>
<g filter="url(#filter1_d)">
<circle cx="46" cy="160" r="9" fill="#002C2A"/>
</g>
<g filter="url(#filter2_d)">
<path d="M0 0H92V92H0V0Z" fill="#002C2A"/>
<path d="M92 92C92 117.405 71.4051 138 46 138C20.5949 138 0 117.405 0 92C0 66.5949 20.5949 46 46 46C71.4051 46 92 66.5949 92 92Z" fill="#002C2A"/>
</g>
<path d="M39 163L47.7272 177.25L31 176L34.5 174L36 173L37 172L37.5 171L38 170L38.5 169L39 167.443L39.5 166V164.5L39 163Z" fill="#002C2A"/>
<path d="M60.7045 175.067L44 175.5L53.4462 161.639L52.7045 166L52.5 167.5L53 169L53.5 170L54.5 171.5L55.5 172.5L56.5 173.5L57.8564 174L59.1554 174.75L60.7045 175.067Z" fill="#002C2A"/>
<rect x="41" y="165" width="9" height="9" fill="#002C2A"/>
<defs>
<filter id="filter0_d" x="10" y="172" width="81" height="81" filterUnits="userSpaceOnUse" color-interpolation-filters="sRGB">
<feFlood flood-opacity="0" result="BackgroundImageFix"/>
<feColorMatrix in="SourceAlpha" type="matrix" values="0 0 0 0 0 0 0 0 0 0 0 0 0 0 0 0 0 0 127 0"/>
<feOffset dx="4" dy="4"/>
<feGaussianBlur stdDeviation="2"/>
<feColorMatrix type="matrix" values="0 0 0 0 0 0 0 0 0 0 0 0 0 0 0 0 0 0 0.25 0"/>
<feBlend mode="normal" in2="BackgroundImageFix" result="effect1_dropShadow"/>
<feBlend mode="normal" in="SourceGraphic" in2="effect1_dropShadow" result="shape"/>
</filter>
<filter id="filter1_d" x="37" y="151" width="26" height="26" filterUnits="userSpaceOnUse" color-interpolation-filters="sRGB">
<feFlood flood-opacity="0" result="BackgroundImageFix"/>
<feColorMatrix in="SourceAlpha" type="matrix" values="0 0 0 0 0 0 0 0 0 0 0 0 0 0 0 0 0 0 127 0"/>
<feOffset dx="4" dy="4"/>
<feGaussianBlur stdDeviation="2"/>
<feColorMatrix type="matrix" values="0 0 0 0 0 0 0 0 0 0 0 0 0 0 0 0 0 0 0.25 0"/>
<feBlend mode="normal" in2="BackgroundImageFix" result="effect1_dropShadow"/>
<feBlend mode="normal" in="SourceGraphic" in2="effect1_dropShadow" result="shape"/>
</filter>
<filter id="filter2_d" x="0" y="0" width="100" height="146" filterUnits="userSpaceOnUse" color-interpolation-filters="sRGB">
<feFlood flood-opacity="0" result="BackgroundImageFix"/>
<feColorMatrix in="SourceAlpha" type="matrix" values="0 0 0 0 0 0 0 0 0 0 0 0 0 0 0 0 0 0 127 0"/>
<feOffset dx="4" dy="4"/>
<feGaussianBlur stdDeviation="2"/>
<feColorMatrix type="matrix" values="0 0 0 0 0 0 0 0 0 0 0 0 0 0 0 0 0 0 0.25 0"/>
<feBlend mode="normal" in2="BackgroundImageFix" result="effect1_dropShadow"/>
<feBlend mode="normal" in="SourceGraphic" in2="effect1_dropShadow" result="shape"/>
</filter>
</defs>
</svg>
