<svg width="243" height="46" viewBox="0 0 243 46" fill="none" xmlns="http://www.w3.org/2000/svg">
<g filter="url(#filter0_i)">
<path d="M46 23C46 35.7025 35.7025 46 23 46C10.2975 46 0 35.7025 0 23C0 10.2975 10.2975 0 23 0C35.7025 0 46 10.2975 46 23Z" fill="url(#paint0_linear)"/>
</g>
<path d="M22.788 24.85L20.344 27.398V32H16.158V13.8H20.344V22.302L28.404 13.8H33.084L25.544 21.912L33.526 32H28.612L22.788 24.85ZM46.5776 28.1H38.1276L36.5156 32H32.1996L40.3116 13.8H44.4716L52.6096 32H48.1896L46.5776 28.1ZM45.2516 24.902L42.3656 17.934L39.4796 24.902H45.2516ZM57.3538 17.232H51.5298V13.8H67.3898V17.232H61.5658V32H57.3538V17.232ZM83.748 28.62V32H69.656V13.8H83.41V17.18H73.842V21.132H82.292V24.408H73.842V28.62H83.748ZM98.2327 17.232H92.4087V13.8H108.269V17.232H102.445V32H98.2327V17.232ZM127.227 13.8V32H123.015V24.538H114.747V32H110.535V13.8H114.747V20.976H123.015V13.8H127.227ZM140.347 32.312C138.458 32.312 136.75 31.9047 135.225 31.09C133.717 30.2753 132.53 29.1573 131.663 27.736C130.814 26.2973 130.389 24.6853 130.389 22.9C130.389 21.1147 130.814 19.5113 131.663 18.09C132.53 16.6513 133.717 15.5247 135.225 14.71C136.75 13.8953 138.458 13.488 140.347 13.488C142.236 13.488 143.935 13.8953 145.443 14.71C146.951 15.5247 148.138 16.6513 149.005 18.09C149.872 19.5113 150.305 21.1147 150.305 22.9C150.305 24.6853 149.872 26.2973 149.005 27.736C148.138 29.1573 146.951 30.2753 145.443 31.09C143.935 31.9047 142.236 32.312 140.347 32.312ZM140.347 28.724C141.422 28.724 142.392 28.4813 143.259 27.996C144.126 27.4933 144.802 26.8 145.287 25.916C145.79 25.032 146.041 24.0267 146.041 22.9C146.041 21.7733 145.79 20.768 145.287 19.884C144.802 19 144.126 18.3153 143.259 17.83C142.392 17.3273 141.422 17.076 140.347 17.076C139.272 17.076 138.302 17.3273 137.435 17.83C136.568 18.3153 135.884 19 135.381 19.884C134.896 20.768 134.653 21.7733 134.653 22.9C134.653 24.0267 134.896 25.032 135.381 25.916C135.884 26.8 136.568 27.4933 137.435 27.996C138.302 28.4813 139.272 28.724 140.347 28.724ZM165.067 32L161.557 26.93H161.349H157.683V32H153.471V13.8H161.349C162.961 13.8 164.356 14.0687 165.535 14.606C166.731 15.1433 167.649 15.906 168.291 16.894C168.932 17.882 169.253 19.052 169.253 20.404C169.253 21.756 168.923 22.926 168.265 23.914C167.623 24.8847 166.705 25.63 165.509 26.15L169.591 32H165.067ZM164.989 20.404C164.989 19.3813 164.659 18.6013 164.001 18.064C163.342 17.5093 162.38 17.232 161.115 17.232H157.683V23.576H161.115C162.38 23.576 163.342 23.2987 164.001 22.744C164.659 22.1893 164.989 21.4093 164.989 20.404ZM189.282 13.8V32H185.824L176.75 20.95V32H172.59V13.8H176.074L185.122 24.85V13.8H189.282ZM193.588 13.8H197.8V28.568H206.926V32H193.588V13.8ZM223.371 28.62V32H209.279V13.8H223.033V17.18H213.465V21.132H221.915V24.408H213.465V28.62H223.371ZM235.281 25.552V32H231.069V25.5L224.023 13.8H228.495L233.357 21.886L238.219 13.8H242.353L235.281 25.552Z" fill="#F7F7F7"/>
<defs>
<filter id="filter0_i" x="0" y="0" width="50" height="50" filterUnits="userSpaceOnUse" color-interpolation-filters="sRGB">
<feFlood flood-opacity="0" result="BackgroundImageFix"/>
<feBlend mode="normal" in="SourceGraphic" in2="BackgroundImageFix" result="shape"/>
<feColorMatrix in="SourceAlpha" type="matrix" values="0 0 0 0 0 0 0 0 0 0 0 0 0 0 0 0 0 0 127 0" result="hardAlpha"/>
<feOffset dx="4" dy="4"/>
<feGaussianBlur stdDeviation="2"/>
<feComposite in2="hardAlpha" operator="arithmetic" k2="-1" k3="1"/>
<feColorMatrix type="matrix" values="0 0 0 0 0 0 0 0 0 0 0 0 0 0 0 0 0 0 0.25 0"/>
<feBlend mode="normal" in2="shape" result="effect1_innerShadow"/>
</filter>
<linearGradient id="paint0_linear" x1="6" y1="8.5" x2="48" y2="44.5" gradientUnits="userSpaceOnUse">
<stop stop-color="#FF4274"/>
<stop offset="1" stop-color="#002C2A"/>
</linearGradient>
</defs>
</svg>
