<svg width="43" height="40" viewBox="0 0 43 40" fill="none" xmlns="http://www.w3.org/2000/svg">
<rect x="2.56689" y="3.24164" width="33.3776" height="33.3776" rx="3.5" fill="#002C2A" stroke="#002C2A" stroke-width="5"/>
<path d="M5.304 15.784H10.296V33H5.304V15.784ZM7.8 13.384C6.88267 13.384 6.136 13.1173 5.56 12.584C4.984 12.0507 4.696 11.3893 4.696 10.6C4.696 9.81067 4.984 9.14933 5.56 8.616C6.136 8.08267 6.88267 7.816 7.8 7.816C8.71733 7.816 9.464 8.072 10.04 8.584C10.616 9.096 10.904 9.736 10.904 10.504C10.904 11.336 10.616 12.0293 10.04 12.584C9.464 13.1173 8.71733 13.384 7.8 13.384ZM25.393 15.528C27.5263 15.528 29.2437 16.168 30.545 17.448C31.8677 18.728 32.529 20.6267 32.529 23.144V33H27.537V23.912C27.537 22.5467 27.2383 21.5333 26.641 20.872C26.0437 20.1893 25.1797 19.848 24.049 19.848C22.7903 19.848 21.7877 20.2427 21.041 21.032C20.2943 21.8 19.921 22.952 19.921 24.488V33H14.929V15.784H19.697V17.8C20.3583 17.0747 21.1797 16.52 22.161 16.136C23.1423 15.7307 24.2197 15.528 25.393 15.528Z" fill="#F1F1F1"/>
</svg>
