<svg width="231" height="217" viewBox="0 0 231 217" fill="none" xmlns="http://www.w3.org/2000/svg">
<path d="M223.307 27.0913H0.710388V189.016H223.307V27.0913Z" fill="#E6E6E6"/>
<path d="M216.942 47.4006H7.0755V179.436H216.942V47.4006Z" fill="white"/>
<path d="M223.212 26.948H0.615295V37.6892H223.212V26.948Z" fill="#ABDFAB"/>
<path d="M7.64281 34.4303C8.61081 34.4303 9.39554 33.539 9.39554 32.4395C9.39554 31.34 8.61081 30.4487 7.64281 30.4487C6.6748 30.4487 5.89008 31.34 5.89008 32.4395C5.89008 33.539 6.6748 34.4303 7.64281 34.4303Z" fill="white"/>
<path d="M14.2957 34.4303C15.2637 34.4303 16.0484 33.539 16.0484 32.4395C16.0484 31.34 15.2637 30.4487 14.2957 30.4487C13.3277 30.4487 12.543 31.34 12.543 32.4395C12.543 33.539 13.3277 34.4303 14.2957 34.4303Z" fill="white"/>
<path d="M20.9487 34.4303C21.9167 34.4303 22.7014 33.539 22.7014 32.4395C22.7014 31.34 21.9167 30.4487 20.9487 30.4487C19.9806 30.4487 19.1959 31.34 19.1959 32.4395C19.1959 33.539 19.9806 34.4303 20.9487 34.4303Z" fill="white"/>
<path d="M80.0703 61.1003H26.1447V165.736H80.0703V61.1003Z" fill="#E6E6E6"/>
<path d="M134.317 61.1003H89.379V89.9026H134.317V61.1003Z" fill="#FF4274"/>
<path d="M134.317 97.9235H89.379V128.913H134.317V97.9235Z" fill="#E6E6E6"/>
<path d="M134.317 136.934H89.379V165.736H134.317V136.934Z" fill="#E6E6E6"/>
<path d="M197.872 61.1003H143.947V106.7H197.872V61.1003Z" fill="#E6E6E6"/>
<path d="M197.872 120.137H143.947V165.736H197.872V120.137Z" fill="#FF4274"/>
<path d="M112.311 74.1201L111.607 73.9077L126.969 8.26978H216.074V9.09676H127.529L112.311 74.1201Z" fill="#3F3D56"/>
<path d="M223.355 17.3664C221.843 17.3664 220.365 16.8572 219.108 15.903C217.851 14.9489 216.871 13.5928 216.292 12.0061C215.714 10.4195 215.562 8.67359 215.857 6.98921C216.152 5.30483 216.88 3.75763 217.949 2.54326C219.019 1.32889 220.381 0.501893 221.864 0.166849C223.347 -0.168195 224.884 0.00376346 226.281 0.660975C227.678 1.31819 228.872 2.43113 229.712 3.85908C230.552 5.28703 231 6.96584 231 8.68322C230.998 10.9853 230.192 13.1924 228.758 14.8203C227.325 16.4481 225.382 17.3638 223.355 17.3664ZM223.355 0.826978C221.987 0.826978 220.65 1.28774 219.512 2.15099C218.375 3.01425 217.488 4.24123 216.965 5.67677C216.441 7.11231 216.304 8.69194 216.571 10.2159C216.838 11.7399 217.497 13.1397 218.464 14.2384C219.432 15.3371 220.664 16.0854 222.006 16.3885C223.347 16.6916 224.738 16.5361 226.002 15.9414C227.266 15.3468 228.346 14.3399 229.106 13.0479C229.866 11.756 230.272 10.237 230.272 8.68322C230.27 6.60034 229.54 4.60345 228.244 3.13063C226.947 1.65782 225.189 0.829344 223.355 0.826978Z" fill="#3F3D56"/>
<path d="M223.355 11.9911C224.964 11.9911 226.267 10.5102 226.267 8.68326C226.267 6.85636 224.964 5.37537 223.355 5.37537C221.747 5.37537 220.443 6.85636 220.443 8.68326C220.443 10.5102 221.747 11.9911 223.355 11.9911Z" fill="#FF4274"/>
<path d="M156.652 208.397H67.546V207.57H156.092L171.31 142.546L172.013 142.759L156.652 208.397Z" fill="#3F3D56"/>
<path d="M60.2653 216.667C58.7533 216.667 57.2753 216.158 56.0181 215.204C54.7609 214.249 53.781 212.893 53.2024 211.307C52.6238 209.72 52.4724 207.974 52.7674 206.29C53.0624 204.605 53.7905 203.058 54.8596 201.844C55.9288 200.629 57.2909 199.802 58.7739 199.467C60.2568 199.132 61.794 199.304 63.1909 199.962C64.5878 200.619 65.7818 201.732 66.6218 203.16C67.4618 204.588 67.9102 206.266 67.9102 207.984C67.9079 210.286 67.1017 212.493 65.6685 214.121C64.2353 215.749 62.2922 216.664 60.2653 216.667ZM60.2653 200.128C58.8973 200.128 57.56 200.588 56.4226 201.452C55.2851 202.315 54.3986 203.542 53.8751 204.977C53.3516 206.413 53.2146 207.992 53.4815 209.516C53.7484 211.04 54.4071 212.44 55.3744 213.539C56.3418 214.638 57.5742 215.386 58.9159 215.689C60.2577 215.992 61.6484 215.837 62.9123 215.242C64.1761 214.647 65.2564 213.64 66.0164 212.348C66.7764 211.057 67.1821 209.538 67.1821 207.984C67.18 205.901 66.4506 203.904 65.1539 202.431C63.8572 200.958 62.0991 200.13 60.2653 200.128Z" fill="#3F3D56"/>
<path d="M60.2653 211.292C61.8737 211.292 63.1776 209.811 63.1776 207.984C63.1776 206.157 61.8737 204.676 60.2653 204.676C58.6569 204.676 57.353 206.157 57.353 207.984C57.353 209.811 58.6569 211.292 60.2653 211.292Z" fill="#FF4274"/>
</svg>
