<svg width="364" height="234" viewBox="0 0 364 234" fill="none" xmlns="http://www.w3.org/2000/svg">
<g clip-path="url(#clip0)">
<path d="M364 0.142334H113.32V160.998H364V0.142334Z" fill="#E6E6E6"/>
<path d="M356.832 20.3176H120.488V151.481H356.832V20.3176Z" fill="white"/>
<path d="M363.893 0H113.213V10.6703H363.893V0Z" fill="#ABDFAB"/>
<path d="M121.127 7.43285C122.217 7.43285 123.101 6.54742 123.101 5.45519C123.101 4.36297 122.217 3.47754 121.127 3.47754C120.037 3.47754 119.153 4.36297 119.153 5.45519C119.153 6.54742 120.037 7.43285 121.127 7.43285Z" fill="white"/>
<path d="M128.619 7.43285C129.709 7.43285 130.593 6.54742 130.593 5.45519C130.593 4.36297 129.709 3.47754 128.619 3.47754C127.529 3.47754 126.645 4.36297 126.645 5.45519C126.645 6.54742 127.529 7.43285 128.619 7.43285Z" fill="white"/>
<path d="M136.112 7.43285C137.202 7.43285 138.085 6.54742 138.085 5.45519C138.085 4.36297 137.202 3.47754 136.112 3.47754C135.021 3.47754 134.138 4.36297 134.138 5.45519C134.138 6.54742 135.021 7.43285 136.112 7.43285Z" fill="white"/>
<path d="M289.957 32.6029H213.011C212.847 32.5812 212.696 32.5004 212.587 32.3756C212.478 32.2508 212.418 32.0905 212.418 31.9245C212.418 31.7585 212.478 31.5982 212.587 31.4734C212.696 31.3486 212.847 31.2678 213.011 31.2461H289.957C290.121 31.2678 290.272 31.3486 290.381 31.4734C290.491 31.5982 290.551 31.7585 290.551 31.9245C290.551 32.0905 290.491 32.2508 290.381 32.3756C290.272 32.5004 290.121 32.5812 289.957 32.6029Z" fill="#CCCCCC"/>
<path d="M236.641 40.0653H187.719C187.555 40.0436 187.404 39.9628 187.295 39.838C187.186 39.7132 187.125 39.5529 187.125 39.3869C187.125 39.2209 187.186 39.0606 187.295 38.9358C187.404 38.811 187.555 38.7302 187.719 38.7085H236.641C236.806 38.7302 236.956 38.811 237.066 38.9358C237.175 39.0606 237.235 39.2209 237.235 39.3869C237.235 39.5529 237.175 39.7132 237.066 39.838C236.956 39.9628 236.806 40.0436 236.641 40.0653Z" fill="#CCCCCC"/>
<path d="M289.957 40.2009H241.035C240.871 40.1792 240.72 40.0984 240.611 39.9736C240.501 39.8488 240.441 39.6885 240.441 39.5225C240.441 39.3565 240.501 39.1962 240.611 39.0714C240.72 38.9466 240.871 38.8658 241.035 38.8441H289.957C290.121 38.8658 290.272 38.9466 290.381 39.0714C290.491 39.1962 290.551 39.3565 290.551 39.5225C290.551 39.6885 290.491 39.8488 290.381 39.9736C290.272 40.0984 290.121 40.1792 289.957 40.2009H289.957Z" fill="#CCCCCC"/>
<path d="M236.76 47.5277H187.838C187.674 47.506 187.523 47.4252 187.414 47.3004C187.304 47.1756 187.244 47.0153 187.244 46.8493C187.244 46.6833 187.304 46.523 187.414 46.3982C187.523 46.2734 187.674 46.1926 187.838 46.1709H236.76C236.924 46.1926 237.075 46.2734 237.184 46.3982C237.294 46.523 237.354 46.6833 237.354 46.8493C237.354 47.0153 237.294 47.1756 237.184 47.3004C237.075 47.4252 236.924 47.506 236.76 47.5277Z" fill="#CCCCCC"/>
<path d="M236.879 54.9901H187.956C187.792 54.9684 187.641 54.8876 187.532 54.7628C187.423 54.638 187.363 54.4777 187.363 54.3117C187.363 54.1457 187.423 53.9854 187.532 53.8606C187.641 53.7358 187.792 53.655 187.956 53.6333H236.879C237.043 53.655 237.194 53.7358 237.303 53.8606C237.412 53.9854 237.473 54.1457 237.473 54.3117C237.473 54.4777 237.412 54.638 237.303 54.7628C237.194 54.8876 237.043 54.9684 236.879 54.9901Z" fill="#CCCCCC"/>
<path d="M259.084 47.5277H245.072C244.908 47.506 244.757 47.4252 244.648 47.3004C244.539 47.1756 244.478 47.0153 244.478 46.8493C244.478 46.6833 244.539 46.523 244.648 46.3982C244.757 46.2734 244.908 46.1926 245.072 46.1709H259.084C259.248 46.1926 259.399 46.2734 259.508 46.3982C259.617 46.523 259.678 46.6833 259.678 46.8493C259.678 47.0153 259.617 47.1756 259.508 47.3004C259.399 47.4252 259.248 47.506 259.084 47.5277Z" fill="#CCCCCC"/>
<path d="M259.084 54.8544H245.072C244.908 54.8327 244.757 54.7519 244.648 54.6271C244.539 54.5023 244.478 54.342 244.478 54.176C244.478 54.01 244.539 53.8496 244.648 53.7248C244.757 53.6 244.908 53.5192 245.072 53.4976H259.084C259.248 53.5192 259.399 53.6 259.508 53.7248C259.617 53.8496 259.678 54.01 259.678 54.176C259.678 54.342 259.617 54.5023 259.508 54.6271C259.399 54.7519 259.248 54.8327 259.084 54.8544Z" fill="#CCCCCC"/>
<path d="M282.595 54.8544H268.583C268.419 54.8327 268.268 54.7519 268.159 54.6271C268.05 54.5023 267.99 54.342 267.99 54.176C267.99 54.01 268.05 53.8496 268.159 53.7248C268.268 53.6 268.419 53.5192 268.583 53.4976H282.595C282.759 53.5192 282.91 53.6 283.019 53.7248C283.129 53.8496 283.189 54.01 283.189 54.176C283.189 54.342 283.129 54.5023 283.019 54.6271C282.91 54.7519 282.759 54.8327 282.595 54.8544Z" fill="#CCCCCC"/>
<path d="M201.374 32.6029H187.363C187.199 32.5812 187.048 32.5004 186.938 32.3756C186.829 32.2508 186.769 32.0905 186.769 31.9245C186.769 31.7585 186.829 31.5982 186.938 31.4734C187.048 31.3486 187.199 31.2678 187.363 31.2461H201.374C201.539 31.2678 201.69 31.3486 201.799 31.4734C201.908 31.5982 201.968 31.7585 201.968 31.9245C201.968 32.0905 201.908 32.2508 201.799 32.3756C201.69 32.5004 201.539 32.5812 201.374 32.6029Z" fill="#CCCCCC"/>
<path d="M236.463 118.166H187.541C187.377 118.144 187.226 118.063 187.117 117.939C187.007 117.814 186.947 117.653 186.947 117.487C186.947 117.321 187.007 117.161 187.117 117.036C187.226 116.912 187.377 116.831 187.541 116.809H236.463C236.628 116.831 236.778 116.912 236.888 117.036C236.997 117.161 237.057 117.321 237.057 117.487C237.057 117.653 236.997 117.814 236.888 117.939C236.778 118.063 236.628 118.144 236.463 118.166H236.463Z" fill="#CCCCCC"/>
<path d="M236.226 133.091H187.303C187.139 133.069 186.988 132.988 186.879 132.863C186.77 132.739 186.71 132.578 186.71 132.412C186.71 132.246 186.77 132.086 186.879 131.961C186.988 131.836 187.139 131.756 187.303 131.734H236.226C236.39 131.756 236.541 131.836 236.65 131.961C236.759 132.086 236.819 132.246 236.819 132.412C236.819 132.578 236.759 132.739 236.65 132.863C236.541 132.988 236.39 133.069 236.226 133.091H236.226Z" fill="#CCCCCC"/>
<path d="M236.344 140.553H187.422C187.258 140.531 187.107 140.451 186.998 140.326C186.889 140.201 186.828 140.041 186.828 139.875C186.828 139.709 186.889 139.548 186.998 139.424C187.107 139.299 187.258 139.218 187.422 139.196H236.344C236.509 139.218 236.66 139.299 236.769 139.424C236.878 139.548 236.938 139.709 236.938 139.875C236.938 140.041 236.878 140.201 236.769 140.326C236.66 140.451 236.509 140.531 236.344 140.553H236.344Z" fill="#CCCCCC"/>
<path d="M257.243 133.226H243.232C243.067 133.205 242.917 133.124 242.807 132.999C242.698 132.874 242.638 132.714 242.638 132.548C242.638 132.382 242.698 132.222 242.807 132.097C242.917 131.972 243.067 131.891 243.232 131.87H257.243C257.408 131.891 257.558 131.972 257.668 132.097C257.777 132.222 257.837 132.382 257.837 132.548C257.837 132.714 257.777 132.874 257.668 132.999C257.558 133.124 257.408 133.205 257.243 133.226Z" fill="#CCCCCC"/>
<path d="M257.243 140.553H243.232C243.067 140.531 242.917 140.451 242.807 140.326C242.698 140.201 242.638 140.041 242.638 139.875C242.638 139.709 242.698 139.548 242.807 139.424C242.917 139.299 243.067 139.218 243.232 139.196H257.243C257.408 139.218 257.558 139.299 257.668 139.424C257.777 139.548 257.837 139.709 257.837 139.875C257.837 140.041 257.777 140.201 257.668 140.326C257.558 140.451 257.408 140.531 257.243 140.553Z" fill="#CCCCCC"/>
<path d="M280.755 133.226H266.743C266.579 133.205 266.428 133.124 266.319 132.999C266.209 132.874 266.149 132.714 266.149 132.548C266.149 132.382 266.209 132.222 266.319 132.097C266.428 131.972 266.579 131.891 266.743 131.87H280.755C280.919 131.891 281.07 131.972 281.179 132.097C281.288 132.222 281.348 132.382 281.348 132.548C281.348 132.714 281.288 132.874 281.179 132.999C281.07 133.124 280.919 133.205 280.755 133.226Z" fill="#CCCCCC"/>
<path d="M290.017 125.628H213.071C212.907 125.607 212.756 125.526 212.647 125.401C212.537 125.276 212.477 125.116 212.477 124.95C212.477 124.784 212.537 124.624 212.647 124.499C212.756 124.374 212.907 124.293 213.071 124.271H290.017C290.181 124.293 290.332 124.374 290.441 124.499C290.55 124.624 290.61 124.784 290.61 124.95C290.61 125.116 290.55 125.276 290.441 125.401C290.332 125.526 290.181 125.607 290.017 125.628Z" fill="#CCCCCC"/>
<path d="M201.434 125.628H187.422C187.258 125.607 187.107 125.526 186.998 125.401C186.889 125.276 186.828 125.116 186.828 124.95C186.828 124.784 186.889 124.624 186.998 124.499C187.107 124.374 187.258 124.293 187.422 124.271H201.434C201.598 124.293 201.749 124.374 201.858 124.499C201.967 124.624 202.028 124.784 202.028 124.95C202.028 125.116 201.967 125.276 201.858 125.401C201.749 125.526 201.598 125.607 201.434 125.628Z" fill="#CCCCCC"/>
<path d="M224.648 67.0442L205.649 85.8421L224.648 104.64L228.923 100.357L214.555 85.9608L229.042 71.4463L224.648 67.0442Z" fill="#E6E6E6"/>
<path d="M252.672 67.0442L271.671 85.8421L252.672 104.64L248.397 100.357L262.765 85.9608L248.278 71.4463L252.672 67.0442Z" fill="#E6E6E6"/>
<path d="M224.648 67.0442L205.649 85.8421L224.648 104.64L228.923 100.357L214.555 85.9608L229.042 71.4463L224.648 67.0442Z" fill="#FF4274"/>
<path d="M252.672 67.0442L271.671 85.8421L252.672 104.64L248.397 100.357L262.765 85.9608L248.278 71.4463L252.672 67.0442Z" fill="#FF4274"/>
</g>
<defs>
<clipPath id="clip0">
<rect width="364" height="234" fill="white"/>
</clipPath>
</defs>
</svg>
