<svg width="441" height="358" viewBox="0 0 441 358" fill="none" xmlns="http://www.w3.org/2000/svg">
<g clip-path="url(#clip0)">
<path d="M260.623 89.0646H113.09C111.235 89.0625 109.457 88.3245 108.145 87.0126C106.834 85.7007 106.096 83.9219 106.094 82.0666V6.99796C106.096 5.14263 106.834 3.36388 108.145 2.05196C109.457 0.740038 111.235 0.00208573 113.09 0H260.623C262.478 0.00208381 264.256 0.740038 265.567 2.05196C266.879 3.36388 267.616 5.14263 267.618 6.99796V82.0666C267.616 83.922 266.878 85.7007 265.567 87.0126C264.256 88.3245 262.478 89.0625 260.623 89.0646Z" fill="#CCCCCC"/>
<path d="M258.927 83.9752H114.785C113.83 83.9741 112.914 83.594 112.238 82.9182C111.563 82.2423 111.183 81.326 111.182 80.3702V8.69447C111.183 7.7387 111.563 6.82237 112.238 6.14653C112.914 5.47069 113.83 5.09054 114.785 5.08948H258.927C259.883 5.09054 260.799 5.47069 261.474 6.14653C262.15 6.82237 262.53 7.7387 262.531 8.69447V80.3702C262.53 81.326 262.15 82.2423 261.474 82.9182C260.799 83.594 259.883 83.9741 258.927 83.9752Z" fill="white"/>
<path d="M121.935 102.863C121.577 102.862 121.223 102.791 120.893 102.652C120.4 102.454 119.979 102.112 119.684 101.67C119.389 101.229 119.234 100.708 119.24 100.177V86.3798L140.023 85.8542L123.812 102.072C123.567 102.321 123.275 102.52 122.953 102.656C122.631 102.792 122.285 102.862 121.935 102.863Z" fill="#CCCCCC"/>
<path d="M241.377 41.3181H168.458C168.012 41.3187 167.571 41.2315 167.159 41.0612C166.747 40.891 166.372 40.6412 166.057 40.3261C165.741 40.0109 165.491 39.6367 165.32 39.2247C165.15 38.8128 165.062 38.3711 165.062 37.9252C165.062 37.4792 165.15 37.0376 165.32 36.6256C165.491 36.2136 165.741 35.8394 166.057 35.5242C166.372 35.2091 166.747 34.9593 167.159 34.7891C167.571 34.6189 168.012 34.5316 168.458 34.5322H241.377C242.277 34.5322 243.139 34.8897 243.775 35.526C244.411 36.1623 244.769 37.0253 244.769 37.9252C244.769 38.825 244.411 39.688 243.775 40.3243C243.139 40.9606 242.277 41.3181 241.377 41.3181Z" fill="#CCCCCC"/>
<path d="M217.636 26.898H168.458C167.559 26.898 166.696 26.5406 166.06 25.9043C165.424 25.268 165.067 24.405 165.067 23.5051C165.067 22.6053 165.424 21.7422 166.06 21.1059C166.696 20.4697 167.559 20.1122 168.458 20.1122H217.636C218.536 20.1122 219.398 20.4697 220.034 21.1059C220.67 21.7422 221.028 22.6053 221.028 23.5051C221.028 24.405 220.67 25.268 220.034 25.9043C219.398 26.5406 218.536 26.898 217.636 26.898Z" fill="#CCCCCC"/>
<path d="M138.273 41.318C144.126 41.318 148.872 36.5709 148.872 30.7151C148.872 24.8593 144.126 20.1122 138.273 20.1122C132.42 20.1122 127.674 24.8593 127.674 30.7151C127.674 36.5709 132.42 41.318 138.273 41.318Z" fill="#FF4274"/>
<path d="M218.906 68.9524C220.779 68.9524 222.297 67.4333 222.297 65.5594C222.297 63.6856 220.779 62.1665 218.906 62.1665C217.033 62.1665 215.514 63.6856 215.514 65.5594C215.514 67.4333 217.033 68.9524 218.906 68.9524Z" fill="#E6E6E6"/>
<path d="M230.776 68.9524C232.649 68.9524 234.168 67.4333 234.168 65.5594C234.168 63.6856 232.649 62.1665 230.776 62.1665C228.903 62.1665 227.385 63.6856 227.385 65.5594C227.385 67.4333 228.903 68.9524 230.776 68.9524Z" fill="#E6E6E6"/>
<path d="M242.647 68.9524C244.52 68.9524 246.038 67.4333 246.038 65.5594C246.038 63.6856 244.52 62.1665 242.647 62.1665C240.774 62.1665 239.255 63.6856 239.255 65.5594C239.255 67.4333 240.774 68.9524 242.647 68.9524Z" fill="#E6E6E6"/>
<path d="M381.529 192.065H233.995C232.141 192.062 230.363 191.324 229.051 190.013C227.74 188.701 227.002 186.922 227 185.067V109.998C227.002 108.143 227.74 106.364 229.051 105.052C230.363 103.74 232.141 103.002 233.995 103H381.529C383.383 103.002 385.161 103.74 386.473 105.052C387.784 106.364 388.522 108.143 388.524 109.998V185.067C388.522 186.922 387.784 188.701 386.473 190.013C385.161 191.325 383.383 192.062 381.529 192.065Z" fill="#CCCCCC"/>
<path d="M379.833 186.975H235.691C234.736 186.974 233.82 186.594 233.144 185.918C232.468 185.242 232.088 184.326 232.087 183.37V111.694C232.088 110.739 232.468 109.822 233.144 109.146C233.82 108.471 234.736 108.09 235.691 108.089H379.833C380.788 108.09 381.704 108.471 382.38 109.146C383.055 109.822 383.435 110.739 383.437 111.694V183.37C383.435 184.326 383.055 185.242 382.38 185.918C381.704 186.594 380.788 186.974 379.833 186.975Z" fill="white"/>
<path d="M371.485 205.072L355.274 188.854L376.058 189.38V203.177C376.063 203.708 375.908 204.229 375.613 204.67C375.318 205.112 374.897 205.454 374.404 205.653C374.074 205.791 373.72 205.862 373.362 205.863C373.012 205.862 372.667 205.792 372.344 205.656C372.022 205.52 371.73 205.321 371.485 205.072Z" fill="#CCCCCC"/>
<path d="M362.283 144.318H289.364C288.918 144.319 288.477 144.231 288.064 144.061C287.652 143.891 287.278 143.641 286.962 143.326C286.647 143.011 286.397 142.637 286.226 142.225C286.055 141.813 285.967 141.371 285.967 140.925C285.967 140.479 286.055 140.037 286.226 139.625C286.397 139.213 286.647 138.839 286.962 138.524C287.278 138.209 287.652 137.959 288.064 137.789C288.477 137.619 288.918 137.531 289.364 137.532H362.283C362.729 137.531 363.17 137.619 363.582 137.789C363.994 137.959 364.369 138.209 364.684 138.524C365 138.839 365.25 139.213 365.421 139.625C365.591 140.037 365.679 140.479 365.679 140.925C365.679 141.371 365.591 141.813 365.421 142.225C365.25 142.637 365 143.011 364.684 143.326C364.369 143.641 363.994 143.891 363.582 144.061C363.17 144.231 362.729 144.319 362.283 144.318Z" fill="#CCCCCC"/>
<path d="M338.542 129.898H289.364C288.918 129.898 288.477 129.81 288.066 129.64C287.655 129.469 287.281 129.219 286.966 128.904C286.651 128.589 286.401 128.215 286.23 127.804C286.06 127.392 285.972 126.951 285.972 126.505C285.972 126.06 286.06 125.618 286.23 125.207C286.401 124.795 286.651 124.421 286.966 124.106C287.281 123.791 287.655 123.541 288.066 123.37C288.477 123.2 288.918 123.112 289.364 123.112H338.542C339.441 123.112 340.304 123.47 340.94 124.106C341.576 124.742 341.933 125.605 341.933 126.505C341.933 127.405 341.576 128.268 340.94 128.904C340.304 129.541 339.441 129.898 338.542 129.898Z" fill="#CCCCCC"/>
<path d="M259.179 144.318C265.032 144.318 269.777 139.571 269.777 133.715C269.777 127.859 265.032 123.112 259.179 123.112C253.325 123.112 248.58 127.859 248.58 133.715C248.58 139.571 253.325 144.318 259.179 144.318Z" fill="#ABDFAB"/>
<path d="M346.811 171.952C348.684 171.952 350.203 170.433 350.203 168.559C350.203 166.686 348.684 165.167 346.811 165.167C344.938 165.167 343.42 166.686 343.42 168.559C343.42 170.433 344.938 171.952 346.811 171.952Z" fill="#E6E6E6"/>
<path d="M358.682 171.952C360.555 171.952 362.073 170.433 362.073 168.559C362.073 166.686 360.555 165.167 358.682 165.167C356.809 165.167 355.29 166.686 355.29 168.559C355.29 170.433 356.809 171.952 358.682 171.952Z" fill="#E6E6E6"/>
<path d="M370.552 171.952C372.425 171.952 373.944 170.433 373.944 168.559C373.944 166.686 372.425 165.167 370.552 165.167C368.679 165.167 367.161 166.686 367.161 168.559C367.161 170.433 368.679 171.952 370.552 171.952Z" fill="#E6E6E6"/>
</g>
<defs>
<clipPath id="clip0">
<rect width="526" height="358" fill="white"/>
</clipPath>
</defs>
</svg>
