<svg width="307" height="256" viewBox="0 0 307 256" fill="none" xmlns="http://www.w3.org/2000/svg">
<g clip-path="url(#clip0)">
<path d="M299.307 27.0913H76.7104V189.016H299.307V27.0913Z" fill="#E6E6E6"/>
<path d="M292.942 47.4006H83.0755V179.436H292.942V47.4006Z" fill="white"/>
<path d="M299.212 26.948H76.6153V37.6892H299.212V26.948Z" fill="#ABDFAB"/>
<path d="M83.6428 34.4303C84.6108 34.4303 85.3955 33.539 85.3955 32.4395C85.3955 31.34 84.6108 30.4487 83.6428 30.4487C82.6748 30.4487 81.8901 31.34 81.8901 32.4395C81.8901 33.539 82.6748 34.4303 83.6428 34.4303Z" fill="white"/>
<path d="M90.2957 34.4303C91.2637 34.4303 92.0484 33.539 92.0484 32.4395C92.0484 31.34 91.2637 30.4487 90.2957 30.4487C89.3277 30.4487 88.543 31.34 88.543 32.4395C88.543 33.539 89.3277 34.4303 90.2957 34.4303Z" fill="white"/>
<path d="M96.9487 34.4303C97.9167 34.4303 98.7014 33.539 98.7014 32.4395C98.7014 31.34 97.9167 30.4487 96.9487 30.4487C95.9806 30.4487 95.1959 31.34 95.1959 32.4395C95.1959 33.539 95.9806 34.4303 96.9487 34.4303Z" fill="white"/>
<path d="M156.07 61.1003H102.145V165.736H156.07V61.1003Z" fill="#E6E6E6"/>
<path d="M210.317 61.1003H165.379V89.9026H210.317V61.1003Z" fill="#FF4274"/>
<path d="M210.317 97.9235H165.379V128.913H210.317V97.9235Z" fill="#E6E6E6"/>
<path d="M210.317 136.934H165.379V165.736H210.317V136.934Z" fill="#E6E6E6"/>
<path d="M273.872 61.1003H219.947V106.7H273.872V61.1003Z" fill="#E6E6E6"/>
<path d="M273.872 120.137H219.947V165.736H273.872V120.137Z" fill="#FF4274"/>
<path d="M188.311 74.1201L187.607 73.9077L202.969 8.26978H292.074V9.09676H203.529L188.311 74.1201Z" fill="#3F3D56"/>
<path d="M299.355 17.3664C297.843 17.3664 296.365 16.8572 295.108 15.903C293.851 14.9489 292.871 13.5928 292.292 12.0061C291.714 10.4195 291.562 8.67359 291.857 6.98921C292.152 5.30483 292.88 3.75763 293.949 2.54326C295.019 1.32889 296.381 0.501893 297.864 0.166849C299.347 -0.168195 300.884 0.00376346 302.281 0.660975C303.678 1.31819 304.872 2.43113 305.712 3.85908C306.552 5.28703 307 6.96584 307 8.68322C306.998 10.9853 306.192 13.1924 304.758 14.8203C303.325 16.4481 301.382 17.3638 299.355 17.3664ZM299.355 0.826978C297.987 0.826978 296.65 1.28774 295.512 2.15099C294.375 3.01425 293.488 4.24123 292.965 5.67677C292.441 7.11231 292.304 8.69194 292.571 10.2159C292.838 11.7399 293.497 13.1397 294.464 14.2384C295.432 15.3371 296.664 16.0854 298.006 16.3885C299.347 16.6916 300.738 16.5361 302.002 15.9414C303.266 15.3468 304.346 14.3399 305.106 13.0479C305.866 11.756 306.272 10.237 306.272 8.68322C306.27 6.60034 305.54 4.60345 304.244 3.13063C302.947 1.65782 301.189 0.829344 299.355 0.826978Z" fill="#3F3D56"/>
<path d="M299.355 11.9911C300.964 11.9911 302.267 10.5102 302.267 8.68326C302.267 6.85636 300.964 5.37537 299.355 5.37537C297.747 5.37537 296.443 6.85636 296.443 8.68326C296.443 10.5102 297.747 11.9911 299.355 11.9911Z" fill="#FF4274"/>
<path d="M232.652 208.397H143.546V207.57H232.092L247.31 142.546L248.013 142.759L232.652 208.397Z" fill="#3F3D56"/>
<path d="M136.265 216.667C134.753 216.667 133.275 216.158 132.018 215.204C130.761 214.249 129.781 212.893 129.202 211.307C128.624 209.72 128.472 207.974 128.767 206.29C129.062 204.605 129.79 203.058 130.86 201.844C131.929 200.629 133.291 199.802 134.774 199.467C136.257 199.132 137.794 199.304 139.191 199.962C140.588 200.619 141.782 201.732 142.622 203.16C143.462 204.588 143.91 206.266 143.91 207.984C143.908 210.286 143.102 212.493 141.669 214.121C140.235 215.749 138.292 216.664 136.265 216.667ZM136.265 200.128C134.897 200.128 133.56 200.588 132.423 201.452C131.285 202.315 130.399 203.542 129.875 204.977C129.352 206.413 129.215 207.992 129.481 209.516C129.748 211.04 130.407 212.44 131.374 213.539C132.342 214.638 133.574 215.386 134.916 215.689C136.258 215.992 137.648 215.837 138.912 215.242C140.176 214.647 141.256 213.64 142.016 212.348C142.776 211.057 143.182 209.538 143.182 207.984C143.18 205.901 142.451 203.904 141.154 202.431C139.857 200.958 138.099 200.13 136.265 200.128Z" fill="#3F3D56"/>
<path d="M136.265 211.292C137.874 211.292 139.178 209.811 139.178 207.984C139.178 206.157 137.874 204.676 136.265 204.676C134.657 204.676 133.353 206.157 133.353 207.984C133.353 209.811 134.657 211.292 136.265 211.292Z" fill="#FF4274"/>
</g>
<defs>
<clipPath id="clip0">
<rect width="307" height="256" fill="white"/>
</clipPath>
</defs>
</svg>
